<?xml version="1.0" encoding="UTF-8"?><svg id="a" xmlns="http://www.w3.org/2000/svg" viewBox="0 0 1080 1080"><defs><style>.b{fill:#fff;}.c{fill:#feeaec;}.d{fill:#ffa4b9;}.e{fill:#fecad6;}.f{fill:#fd9eb6;}.g{fill:#ff81a8;}.h{fill:#a3d2ca;}.i{fill:#231f20;}.j{fill:#520028;}.k{font-family:Avenir-Light, Avenir;font-size:115.35px;}</style></defs><rect class="h" x="0" width="1080" height="1080"/><path class="b" d="M174.53,203V931.37H905.32V203H174.53ZM890.4,916.5H189.45V217.87H890.4V916.5Z"/><g><rect class="f" x="546.95" y="609.71" width="9.07" height="367.1"/><path class="f" d="M600.17,970.4c-45.04,0-34.74-10.28-51.48-7.7-16.72,2.58-24.42,16.66-24.42,16.66,38.58,0,82.35,7.7,87.47-1.28,5.14-8.97-11.57-7.67-11.57-7.67Z"/><path class="f" d="M646.35,924.35c0-44.87-10.29-34.61-7.72-51.26,2.59-16.69,16.74-24.39,16.74-24.39,0,38.47,7.71,82.08-1.29,87.23-9.02,5.08-7.73-11.58-7.73-11.58Z"/><path class="f" d="M643.54,874.6l.92-8.95-170.01-17.69c.59-26.97,5.56-180.18,42.99-272.59l-8.44-3.38c-41.56,102.68-43.69,278.26-43.69,280l-.05,4.12,178.28,18.49Z"/><path class="g" d="M523.68,578.06c0,17.5,12.45,31.65,27.79,31.65s27.78-14.14,27.78-31.65-12.43-31.65-27.78-31.65-27.79,14.17-27.79,31.65Z"/><path class="g" d="M483.46,565c-8.29,15.39-4.06,33.71,9.47,40.97,13.51,7.23,31.2,.62,39.49-14.79,8.28-15.41,4.03-33.74-9.48-40.97-13.49-7.26-31.19-.65-39.48,14.79Z"/><path class="g" d="M731.71,494.44c-181.11,120.36-263.09,110.17-323.5,49.97-60.35-60.16-137.21,60.2-137.21,60.2,0,0,214.07-459.52,417.14-147.71"/><path class="g" d="M616.98,182.19c0,21.65,20.45,39.18,45.63,39.18s45.65-17.53,45.65-39.18-20.45-39.19-45.65-39.19-45.63,17.56-45.63,39.19Z"/><path class="g" d="M599.2,543.76c3.35-.22,82.65-5.14,132.51-49.32,21.94-19.43,32.33-44.86,30.67-72.06-2.34-38.85-29.71-78.23-77.03-110.87-31.41-21.69-51.55-52.36-50.16-76.33,.86-14.82,10.07-26.68,28.15-36.28l-25.62-47.88c-34.71,18.46-54.91,47.24-56.88,81.03-2.5,43.5,25.66,91.03,73.51,124.06,32.33,22.29,52.42,48.33,53.72,69.56,.63,10.42-3.45,19.14-12.83,27.46-35.53,31.44-99.01,36.48-99.64,36.51l3.6,54.12Z"/><g><path class="j" d="M756.26,202.1c3.55,6.09,5.3,12.02,6.11,17.4,2.85,19.07-26.95,50.33-23.27,33.54,1.27-5.67-4.48-12.92-12.63-20.14,10.36-4.06,23.11-12.7,29.79-30.8Z"/><path class="c" d="M703.7,166.04c30.31,10.34,45.26,23.53,52.56,36.06-6.68,18.11-19.43,26.74-29.79,30.8-10.54-9.29-25.08-18.34-33.76-23.43-1.81-10.7-.63-25.78,10.99-43.44Z"/></g><path class="d" d="M542.1,369.33c105.37,22.44,130.2,110.62,96.05,153.18-34.16,42.53-239.06,95.74-202.76,72.32,36.27-23.38-93.92,10.64-51.25-19.11,42.71-29.82-70.42,33.99-46.93,4.23,23.45-29.79-72.6,57.44-64.04,31.89,8.53-25.52,141.06-269.74,268.95-242.51Z"/><path class="e" d="M554.48,388.72c225.08,47.95-45.39,222.29-85.09,176.9,2.52-3.13,5.2-6.13,7.98-8.97-3.39-7.41-51.03,7.26-50.88-2.38,4.16-5,8.86-9.37,14.15-13.18-.12-.32-39.56,16.92-44.84,15.47,.39-3.86,1.56-7.47,3.46-10.85-18.28,5.12-29.91,27.37-48.7,32.68,2.26-.63,49.62-90.61,57.59-100.86,32.52-41.82,86.07-101.63,146.33-88.81,80.93,17.24-98.23-20.9,0,0Z"/><g><path class="i" d="M657.42,180.41l2.28-4.38c3.2,1.84,12.31,5.9,20.16-2.22l4.8,4.09,1.53-1.77-6.57-5.57-.76,.86c-8.34,9.63-18.48,2.32-18.91,2l-1.12-.83-3.52,6.76,2.1,1.07Z"/><polygon class="i" points="678.29 180.73 680.38 179.64 677.68 174.61 675.59 175.71 678.29 180.73"/><polygon class="i" points="670.89 182.83 673.21 182.5 672.44 177.32 670.1 177.67 670.89 182.83"/><polygon class="i" points="664.49 182.47 666.14 177.25 663.87 176.54 662.22 181.76 664.49 182.47"/></g></g><g><path d="M64.44,584.45c-2.83,0-4.24-1.76-4.24-5.3,0-2.62,1.18-5.5,3.56-8.63,2.37-3.13,3.81-5.19,4.31-6.2,.5-1.01,1.84-2.57,4.01-4.69,2.17-2.12,4.09-3.38,5.75-3.78,1.66-.4,5.07-.86,10.21-1.36,15.74-1.51,32.89-2.37,51.45-2.57,20.17-30.57,36.62-53.26,49.33-68.09-18.86,3.43-42.02,5.14-69.45,5.14-37.22,0-55.84-8.32-55.84-24.97,0-4.74,2.39-8.88,7.19-12.41,4.79-3.53,10.84-5.3,18.16-5.3s10.97,.86,10.97,2.57c0,.91-1.13,1.36-3.4,1.36s-4.39,.83-6.36,2.5-2.95,3.25-2.95,4.77c0,2.32,4.94,4.04,14.83,5.14,9.89,1.11,25.14,1.66,45.77,1.66s43-1.87,67.11-5.6c7.97-6.56,15.46-11.5,22.47-14.83,7.01-3.33,14.15-4.99,21.41-4.99s12,1.61,14.22,4.84c2.22,3.23,3.35,5.65,3.4,7.26,.05,1.61-1.13,3.73-3.56,6.36-2.42,2.62-5.8,5.3-10.14,8.02-10.19,6.26-23.56,9.99-40.1,11.2-17.65,22.3-35.86,47.51-54.63,75.66,7.77,.3,15.03,.88,21.79,1.74,6.76,.86,10.14,3.51,10.14,7.94,0,1.82-2.88,5.3-8.63,10.44-.61,.71-1.36,1.77-2.27,3.18-1.61,2.42-3.2,3.63-4.77,3.63s-3.36-.2-5.37-.61c-7.87-.3-13.77-.45-17.7-.45l-9.84,.15c-35.51,55.28-53.84,84.01-55,86.17-1.16,2.17-2.42,3.81-3.78,4.92-1.36,1.11-3.05,1.66-5.07,1.66s-4.84-.33-8.47-.98c-3.63-.66-6.36-1.46-8.17-2.42s-2.72-2.17-2.72-3.63,.45-3.56,1.36-6.28c2.42-6.76,19.37-32.84,50.84-78.23-20.48,1.01-36.72,2.07-48.72,3.18l-7.11,1.82Zm192.17-136.64c-1.61,.51-3.58,1.31-5.9,2.42l5.9-2.42Z"/><path d="M333.25,444.4c3.68,2.88,5.52,7.14,5.52,12.79s-3.13,14.5-9.38,26.56c-6.26,12.06-13.77,24.36-22.55,36.92-8.78,12.56-18.71,25.9-29.81,40.02-17.55,22.39-34.4,42.52-50.54,60.38-.1,1.21-.53,3.46-1.29,6.73-.76,3.28-1.13,6.58-1.13,9.91s1.54,6.33,4.62,9c3.08,2.67,6.88,4.01,11.42,4.01s9.41-1.61,14.6-4.84c5.19-3.23,9.71-6.81,13.54-10.74,10.09-10.39,16.34-15.59,18.76-15.59s3.63,3.68,3.63,11.05v3.03c0,3.93-.71,6.81-2.12,8.63-8.47,10.39-18.01,18.13-28.6,23.23s-20.63,7.64-30.11,7.64-16.7-2.9-21.64-8.7c-4.94-5.8-7.41-13.74-7.41-23.83,0-19.67,5.27-42.8,15.81-69.38,10.54-26.58,22.42-49.2,35.63-67.87,29.76-42.17,52.51-63.25,68.24-63.25,4.84,0,9.1,1.44,12.79,4.31Zm-19.6,20.81c0-1.51-.51-2.27-1.51-2.27-3.53,0-12.81,10.09-27.84,30.26-15.03,20.18-25.9,36.27-32.61,48.27-6.71,12.01-13.04,27.09-18.99,45.24,11.9-14.12,28.37-36.14,49.4-66.05,21.03-29.91,31.55-48.4,31.55-55.46Z"/><path d="M390.37,552.21c7.66,0,11.5,2.62,11.5,7.87,0,2.83-.66,4.89-1.97,6.2-1.31,1.31-4.11,5.67-8.4,13.09-4.29,7.41-9.03,16.9-14.22,28.45-5.2,11.55-8.55,21.41-10.06,29.58-.3,1.01-.45,2.42-.45,4.24,0,5.55,1.51,8.32,4.54,8.32s6.61-1.44,10.74-4.31c4.14-2.88,7.82-5.95,11.05-9.23,3.23-3.28,6.38-6.63,9.46-10.06,3.08-3.43,4.92-5.4,5.52-5.9,.61-.5,1.51-.76,2.72-.76,1.91,0,3.08,1.46,3.48,4.39,.4,2.93,.61,5.95,.61,9.08s-.3,5.3-.91,6.51c-2.93,5.75-9.36,12.66-19.29,20.73-9.94,8.07-18.97,12.11-27.09,12.11s-14.1-2.47-17.93-7.41c-3.84-4.94-5.75-10.42-5.75-16.42s1.01-11.27,3.03-15.81c-8.37,10.89-17.98,20.13-28.83,27.69-10.85,7.57-19.7,11.35-26.56,11.35s-12.46-2.07-16.8-6.2c-5.55-5.14-8.32-12.28-8.32-21.41s2.04-18.31,6.13-27.54,9.46-17.65,16.12-25.27c6.66-7.62,13.97-14.55,21.94-20.81,16.74-13.11,32.18-19.67,46.3-19.67,5.45,0,9.89,.91,13.32,2.72,3.43,1.82,5.6,4.09,6.51,6.81,2.42-3.63,4.46-5.92,6.13-6.88,1.66-.96,4.16-1.44,7.49-1.44Zm-20.13,16.8c-17.25,0-35.11,9.59-53.57,28.75-6.56,6.86-12.59,15.08-18.08,24.66-5.5,9.59-8.25,16.14-8.25,19.67s1.01,5.3,3.03,5.3c2.82,0,10.69-5.57,23.61-16.72,12.91-11.15,21.49-19.34,25.72-24.59,4.64-5.85,13.82-18.21,27.54-37.07Z"/><path d="M401.12,668.12l-7.41-.3h-2.72c-1.01-.3-2.09-.91-3.25-1.82-1.16-.91-2.04-1.56-2.65-1.97-.61-.4-.91-1.13-.91-2.19s.4-2.9,1.21-5.52c19.67-43.28,38.68-77.88,57.05-103.8,2.02-2.82,5.27-4.97,9.76-6.43,4.49-1.46,8.85-2.19,13.09-2.19,2.52,0,3.78,1.97,3.78,5.9,0,1.11-.4,2.6-1.21,4.46-.81,1.87-2.83,4.92-6.05,9.15-3.23,4.24-7.06,9.08-11.5,14.53-4.44,5.45-6.96,8.58-7.57,9.38,13.82-14.32,26.3-24.99,37.45-32,11.15-7.01,19.22-10.52,24.21-10.52s8.83,1.44,11.5,4.31c2.67,2.88,4.01,5.95,4.01,9.23s-.23,6-.68,8.17c-.45,2.17-1.29,4.44-2.5,6.81-1.21,2.37-2.25,4.39-3.1,6.05-.86,1.66-2.29,3.84-4.31,6.51-2.02,2.67-3.4,4.52-4.16,5.52-.76,1.01-2.32,2.93-4.69,5.75-2.37,2.83-3.66,4.39-3.86,4.69,2.82-2.82,6.76-7.01,11.8-12.56,5.04-5.55,9.31-10.19,12.79-13.92,3.48-3.73,7.84-7.94,13.09-12.63,5.24-4.69,10.14-8.5,14.68-11.42,10.89-6.86,21.94-10.29,33.14-10.29,3.83,0,7.06,1.21,9.68,3.63,2.62,2.42,3.93,5.32,3.93,8.7s-4.09,11.45-12.26,24.21c-8.17,12.76-16.32,25.57-24.44,38.43-8.12,12.86-12.18,20.96-12.18,24.29,0,4.64,.86,7.39,2.57,8.25,1.71,.86,3.78,1.19,6.2,.98,2.42-.2,5.83-1.76,10.21-4.69,4.39-2.92,8.3-5.95,11.73-9.08,5.55-5.04,10.69-9.93,15.43-14.68,1.01-.91,2.12-1.36,3.33-1.36,1.91,0,3.08,1.46,3.48,4.39,.4,2.93,.61,5.95,.61,9.08s-.3,5.3-.91,6.51c-2.93,5.65-9.38,12.56-19.37,20.73-9.99,8.17-19.57,12.26-28.75,12.26-1.11,0-1.92-.05-2.42-.15-10.39-1.01-17.58-3.86-21.56-8.55-3.99-4.69-5.98-10.26-5.98-16.72s2.19-14.27,6.58-23.45c4.39-9.18,9.21-17.5,14.45-24.97,5.24-7.46,10.06-14.2,14.45-20.2,4.39-6,6.58-9.25,6.58-9.76s-.4-.76-1.21-.76c-3.13,0-10.09,5.05-20.88,15.13-18.46,17.25-34.4,33.89-47.82,49.93-3.53,4.24-11.9,14.98-25.12,32.23-1.51,2.02-3.91,3.03-7.19,3.03s-6.68-.63-10.21-1.89c-3.53-1.26-5.3-2.9-5.3-4.92,0-1.01,8.02-15.16,24.06-42.44,16.04-27.29,24.06-42.17,24.06-44.64s-1.49-3.71-4.46-3.71-9.11,4.44-18.38,13.32c-25.52,24.41-45.3,48.68-59.32,72.78-.91,1.41-2.67,3.63-5.3,6.66-2.62,3.03-4.39,4.54-5.3,4.54Z"/><path d="M663.65,633.17c0,3.03-.3,5.2-.91,6.51-4.94,10.09-12.81,18.23-23.61,24.44-10.8,6.2-20.18,9.31-28.14,9.31s-14.83-2.67-20.58-8.02-8.63-10.79-8.63-16.34,2.77-13.62,8.32-24.21c5.55-10.59,11.1-20.38,16.64-29.36,5.55-8.98,8.32-13.85,8.32-14.6s-1.04-2.24-3.1-4.46c-2.07-2.22-3.1-3.86-3.1-4.92s2.09-3.83,6.28-8.32c4.18-4.49,9.28-8.93,15.28-13.32,6-4.39,10.59-6.58,13.77-6.58s6.03,1.41,8.55,4.24c2.52,2.83,3.78,5.4,3.78,7.72s-12.01,24.16-36.01,65.52c-.3,.61-1.13,1.94-2.5,4.01-1.36,2.07-2.42,3.78-3.18,5.14s-1.64,3-2.65,4.92c-2.02,4.04-3.03,7.41-3.03,10.14,0,3.43,2.32,5.14,6.96,5.14s9.46-1.59,14.45-4.77,9.31-6.68,12.94-10.52c9.48-10.19,14.88-15.28,16.19-15.28,2.62,0,3.93,4.54,3.93,13.62Z"/><path d="M731.44,643.91c0,4.44,3.03,6.66,9.08,6.66,3.23,0,7.29-1.61,12.18-4.84,4.89-3.23,9.31-6.76,13.24-10.59,10.49-10.39,16.44-15.59,17.86-15.59,2.62,0,3.93,3.78,3.93,11.35s-2.37,12.76-7.11,15.59c-14.43,13.01-25.57,20.93-33.44,23.76-4.44,1.51-9.33,2.22-14.68,2.12-5.35-.1-10.64-2.42-15.89-6.96-5.25-4.54-7.87-10.06-7.87-16.57s1.71-13.89,5.14-22.17c3.43-8.27,6.93-15.36,10.52-21.26,3.58-5.9,7.99-12.76,13.24-20.58,5.24-7.82,8.02-12.68,8.32-14.6l-.3-.3c-3.33,.3-11.58,6.86-24.74,19.67-13.16,12.81-24.04,23.96-32.61,33.44-8.57,9.48-18.82,22.14-30.72,37.98-3.33,4.34-6.05,6.51-8.17,6.51s-4.97-.68-8.55-2.04-5.77-2.35-6.58-2.95c-.81-.61-1.21-1.51-1.21-2.72s.35-2.7,1.06-4.46c.71-1.76,1.39-3.23,2.04-4.39,.66-1.16,1.74-2.95,3.25-5.37s4.51-7.54,9-15.36c4.49-7.82,11.37-19.49,20.65-35.03,9.28-15.53,14.83-24.92,16.64-28.14,3.83-6.66,6.96-11.5,9.38-14.53,4.54-5.75,12.2-8.63,23-8.63,2.42,0,3.63,1.51,3.63,4.54,0,4.74-4.39,13.67-13.16,26.78l-6.36,9.53c17.45-19.37,32.18-31.63,44.18-36.77,5.85-2.52,11.12-3.78,15.81-3.78s8.42,1.26,11.2,3.78c2.77,2.52,4.16,5.32,4.16,8.4s-1.06,6.76-3.18,11.05c-2.12,4.29-4.26,8.12-6.43,11.5-2.17,3.38-5.02,7.64-8.55,12.79-3.53,5.14-5.45,7.94-5.75,8.4s-1.09,1.66-2.35,3.63c-1.26,1.97-2.19,3.4-2.8,4.31s-1.61,2.5-3.03,4.77c-1.41,2.27-2.55,4.16-3.4,5.67-.86,1.51-1.92,3.38-3.18,5.6-1.26,2.22-2.27,4.14-3.03,5.75-.76,1.62-1.54,3.38-2.35,5.3-1.41,3.53-2.12,6.46-2.12,8.78Z"/><path d="M820.64,566.67c9.73-6.71,19.29-11.88,28.67-15.51,9.38-3.63,17.5-5.45,24.36-5.45s11.25,1.97,13.16,5.9c3.93-4.54,8.83-6.96,14.68-7.26,1.71-.1,3.83-.15,6.36-.15s4.09,.33,4.69,.98c.61,.66,1.16,1.89,1.66,3.71,.5,1.82,.81,2.83,.91,3.03,.1,.2,.15,.53,.15,.98s-.25,1.01-.76,1.66c-.51,.66-1.09,1.29-1.74,1.89-.66,.61-1.04,.96-1.13,1.06-22.3,31.98-45.09,68.45-68.39,109.4,24.01-21.28,45.49-36.57,64.46-45.85,1.21-.61,2.37-.91,3.48-.91,1.61,0,2.67,1.04,3.18,3.1,.5,2.07,.76,5.02,.76,8.85s-.23,6.2-.68,7.11-2.8,2.72-7.04,5.45-9.74,6.26-16.49,10.59c-6.76,4.34-13.92,9.13-21.49,14.38-18.16,12.61-33.09,25.88-44.79,39.8-15.13,18.26-25.98,32.99-32.53,44.18-2.42,4.34-6.51,6.51-12.26,6.51-11.4,0-17.1-5.4-17.1-16.19s5.4-22.24,16.19-33.74c8.07-8.58,15.48-15.59,22.24-21.03,6.76-5.45,10.44-8.53,11.05-9.23,7.46-11.2,17.6-27.09,30.41-47.66-10.89,11.4-21.46,20.48-31.7,27.24-10.24,6.76-17.88,10.14-22.92,10.14-15.43,0-23.15-6.61-23.15-19.82,0-10.49,2.67-21.08,8.02-31.78,5.35-10.69,12.2-20.25,20.58-28.67,8.37-8.42,17.42-15.99,27.16-22.7Zm57.58-3.86c-11.7,2.52-22.7,6.68-32.99,12.48-10.29,5.8-18.76,12.01-25.42,18.61-6.66,6.61-12.41,13.39-17.25,20.35-9.08,13.01-13.62,23.1-13.62,30.26,0,1.72,.43,2.57,1.29,2.57s2.77-.91,5.75-2.72c2.97-1.82,7.19-4.92,12.63-9.31s11.5-9.61,18.16-15.66c15.43-14.22,32.58-33.09,51.45-56.59Z"/><path d="M1005.93,551.91c3.03,0,6.13,1.36,9.31,4.09s4.77,6.88,4.77,12.48-1.97,12.86-5.9,21.79-9.33,18.01-16.19,27.24c-6.86,9.23-14.4,17.91-22.62,26.03-8.22,8.12-17.1,14.78-26.63,19.97-9.53,5.2-18.18,7.79-25.95,7.79s-14-2.45-18.69-7.34-7.04-11.7-7.04-20.43,2.14-18.38,6.43-28.98c4.29-10.59,9.81-19.95,16.57-28.07,6.76-8.12,14.07-15.41,21.94-21.87,16.44-13.21,30.87-19.82,43.28-19.82,5.55,0,9.73,1.36,12.56,4.09,1.01,.91,1.51,1.72,1.51,2.42v.91c1.41-.2,3.63-.3,6.66-.3Zm-15.28,20.13h-1.06c-3.53,0-5.3-2.57-5.3-7.72-7.36,2.42-15.08,6.66-23.15,12.71-8.07,6.05-15.28,13.22-21.64,21.49-12.91,16.55-19.47,30.52-19.67,41.91,0,5.65,2.07,8.47,6.2,8.47s10.29-2.72,18.46-8.17c8.17-5.45,16.27-13.21,24.29-23.3,8.02-10.09,14.02-18.84,18.01-26.25,3.98-7.41,5.98-12.46,5.98-15.13s-.71-4.01-2.12-4.01Z"/></g><text class="k" transform="translate(353.54 517.28)"><tspan x="0" y="0">User Role for</tspan></text></svg>